<mxfile host="Electron" modified="2024-05-16T05:35:16.548Z" agent="Mozilla/5.0 (Windows NT 10.0; Win64; x64) AppleWebKit/537.36 (KHTML, like Gecko) draw.io/21.6.5 Chrome/114.0.5735.243 Electron/25.3.1 Safari/537.36" etag="2fu6tyl5gbQNIBa4XT22" version="21.6.5" type="device">
  <diagram name="第 1 页" id="sHiQR7F67vJXkx4jLOrB">
    <mxGraphModel dx="1694" dy="1154" grid="1" gridSize="10" guides="1" tooltips="1" connect="1" arrows="1" fold="1" page="1" pageScale="1" pageWidth="827" pageHeight="1169" math="0" shadow="0">
      <root>
        <mxCell id="0" />
        <mxCell id="1" parent="0" />
        <mxCell id="K8IfVs_N-EPz9VmKfKi--1" value="&lt;font style=&quot;font-size: 14px;&quot;&gt;新增客户业务流程&lt;/font&gt;" style="text;html=1;align=center;verticalAlign=middle;resizable=0;points=[];autosize=1;fontSize=14;labelBackgroundColor=none;fontColor=#143642;" parent="1" vertex="1">
          <mxGeometry x="35" y="30" width="140" height="30" as="geometry" />
        </mxCell>
        <mxCell id="K8IfVs_N-EPz9VmKfKi--38" value="" style="edgeStyle=orthogonalEdgeStyle;rounded=0;orthogonalLoop=1;jettySize=auto;html=1;fontSize=14;labelBackgroundColor=none;strokeColor=#A8201A;fontColor=default;" parent="1" source="K8IfVs_N-EPz9VmKfKi--2" target="K8IfVs_N-EPz9VmKfKi--37" edge="1">
          <mxGeometry relative="1" as="geometry" />
        </mxCell>
        <mxCell id="K8IfVs_N-EPz9VmKfKi--2" value="&lt;font style=&quot;font-size: 14px;&quot;&gt;开始&lt;/font&gt;" style="rounded=1;whiteSpace=wrap;html=1;fontSize=14;labelBackgroundColor=none;fillColor=#FAE5C7;strokeColor=#0F8B8D;fontColor=#143642;" parent="1" vertex="1">
          <mxGeometry x="110" y="90" width="110" height="60" as="geometry" />
        </mxCell>
        <mxCell id="K8IfVs_N-EPz9VmKfKi--40" value="" style="edgeStyle=orthogonalEdgeStyle;rounded=0;orthogonalLoop=1;jettySize=auto;html=1;fontSize=14;labelBackgroundColor=none;strokeColor=#A8201A;fontColor=default;" parent="1" source="K8IfVs_N-EPz9VmKfKi--37" target="K8IfVs_N-EPz9VmKfKi--39" edge="1">
          <mxGeometry relative="1" as="geometry" />
        </mxCell>
        <mxCell id="K8IfVs_N-EPz9VmKfKi--37" value="前端发送携带参数信息的HTTP请求" style="rounded=0;whiteSpace=wrap;html=1;fontSize=14;labelBackgroundColor=none;fillColor=#FAE5C7;strokeColor=#0F8B8D;fontColor=#143642;" parent="1" vertex="1">
          <mxGeometry x="105" y="190" width="120" height="60" as="geometry" />
        </mxCell>
        <mxCell id="y1aobud8_qHiIOchyNXg-2" value="" style="edgeStyle=orthogonalEdgeStyle;rounded=0;orthogonalLoop=1;jettySize=auto;html=1;fontSize=14;labelBackgroundColor=none;strokeColor=#A8201A;fontColor=default;" edge="1" parent="1" source="K8IfVs_N-EPz9VmKfKi--39" target="y1aobud8_qHiIOchyNXg-1">
          <mxGeometry relative="1" as="geometry" />
        </mxCell>
        <mxCell id="K8IfVs_N-EPz9VmKfKi--39" value="Controller层接收请求" style="rounded=0;whiteSpace=wrap;html=1;fontSize=14;labelBackgroundColor=none;fillColor=#FAE5C7;strokeColor=#0F8B8D;fontColor=#143642;" parent="1" vertex="1">
          <mxGeometry x="105" y="290" width="120" height="60" as="geometry" />
        </mxCell>
        <mxCell id="y1aobud8_qHiIOchyNXg-4" value="" style="edgeStyle=orthogonalEdgeStyle;rounded=0;orthogonalLoop=1;jettySize=auto;html=1;fontSize=14;entryX=1;entryY=0.5;entryDx=0;entryDy=0;labelBackgroundColor=none;strokeColor=#A8201A;fontColor=default;" edge="1" parent="1" target="y1aobud8_qHiIOchyNXg-11">
          <mxGeometry relative="1" as="geometry">
            <mxPoint x="233.1300000000001" y="448" as="sourcePoint" />
            <mxPoint x="360.13" y="860" as="targetPoint" />
            <Array as="points">
              <mxPoint x="233" y="449" />
              <mxPoint x="360" y="449" />
              <mxPoint x="360" y="855" />
            </Array>
          </mxGeometry>
        </mxCell>
        <mxCell id="y1aobud8_qHiIOchyNXg-7" value="" style="edgeStyle=orthogonalEdgeStyle;rounded=0;orthogonalLoop=1;jettySize=auto;html=1;fontSize=14;labelBackgroundColor=none;strokeColor=#A8201A;fontColor=default;" edge="1" parent="1" source="y1aobud8_qHiIOchyNXg-1" target="y1aobud8_qHiIOchyNXg-6">
          <mxGeometry relative="1" as="geometry" />
        </mxCell>
        <mxCell id="y1aobud8_qHiIOchyNXg-1" value="参数验证，客户编码或名称是否为空" style="rhombus;whiteSpace=wrap;html=1;fontSize=14;labelBackgroundColor=none;fillColor=#FAE5C7;strokeColor=#0F8B8D;fontColor=#143642;" vertex="1" parent="1">
          <mxGeometry x="96.88" y="410" width="136.25" height="70" as="geometry" />
        </mxCell>
        <mxCell id="y1aobud8_qHiIOchyNXg-5" value="是" style="text;html=1;align=center;verticalAlign=middle;resizable=0;points=[];autosize=1;fontSize=14;labelBackgroundColor=none;fontColor=#143642;" vertex="1" parent="1">
          <mxGeometry x="270" y="410" width="40" height="30" as="geometry" />
        </mxCell>
        <mxCell id="y1aobud8_qHiIOchyNXg-10" value="" style="edgeStyle=orthogonalEdgeStyle;rounded=0;orthogonalLoop=1;jettySize=auto;html=1;fontSize=14;labelBackgroundColor=none;strokeColor=#A8201A;fontColor=default;" edge="1" parent="1" source="y1aobud8_qHiIOchyNXg-6" target="y1aobud8_qHiIOchyNXg-9">
          <mxGeometry relative="1" as="geometry" />
        </mxCell>
        <mxCell id="y1aobud8_qHiIOchyNXg-6" value="调用service层新增客户方法，传递客户信息" style="whiteSpace=wrap;html=1;fontSize=14;labelBackgroundColor=none;fillColor=#FAE5C7;strokeColor=#0F8B8D;fontColor=#143642;" vertex="1" parent="1">
          <mxGeometry x="93.12" y="560" width="145" height="75" as="geometry" />
        </mxCell>
        <mxCell id="y1aobud8_qHiIOchyNXg-8" value="否" style="text;html=1;align=center;verticalAlign=middle;resizable=0;points=[];autosize=1;fontSize=14;labelBackgroundColor=none;fontColor=#143642;" vertex="1" parent="1">
          <mxGeometry x="160" y="500" width="40" height="30" as="geometry" />
        </mxCell>
        <mxCell id="y1aobud8_qHiIOchyNXg-12" value="" style="edgeStyle=orthogonalEdgeStyle;rounded=0;orthogonalLoop=1;jettySize=auto;html=1;fontSize=14;labelBackgroundColor=none;strokeColor=#A8201A;fontColor=default;" edge="1" parent="1" source="y1aobud8_qHiIOchyNXg-9" target="y1aobud8_qHiIOchyNXg-11">
          <mxGeometry relative="1" as="geometry" />
        </mxCell>
        <mxCell id="y1aobud8_qHiIOchyNXg-9" value="处理新增客户业务逻辑，调用Dao层持久化客户信息到数据库" style="whiteSpace=wrap;html=1;fontSize=14;labelBackgroundColor=none;fillColor=#FAE5C7;strokeColor=#0F8B8D;fontColor=#143642;" vertex="1" parent="1">
          <mxGeometry x="87.5" y="700" width="155" height="75" as="geometry" />
        </mxCell>
        <mxCell id="y1aobud8_qHiIOchyNXg-14" value="" style="edgeStyle=orthogonalEdgeStyle;rounded=0;orthogonalLoop=1;jettySize=auto;html=1;fontSize=14;labelBackgroundColor=none;strokeColor=#A8201A;fontColor=default;" edge="1" parent="1" source="y1aobud8_qHiIOchyNXg-11" target="y1aobud8_qHiIOchyNXg-13">
          <mxGeometry relative="1" as="geometry" />
        </mxCell>
        <mxCell id="y1aobud8_qHiIOchyNXg-11" value="返回响应" style="whiteSpace=wrap;html=1;fontSize=14;labelBackgroundColor=none;fillColor=#FAE5C7;strokeColor=#0F8B8D;fontColor=#143642;" vertex="1" parent="1">
          <mxGeometry x="112.51" y="840" width="105" height="30" as="geometry" />
        </mxCell>
        <mxCell id="y1aobud8_qHiIOchyNXg-13" value="结束" style="rounded=1;whiteSpace=wrap;html=1;fontSize=14;labelBackgroundColor=none;fillColor=#FAE5C7;strokeColor=#0F8B8D;fontColor=#143642;" vertex="1" parent="1">
          <mxGeometry x="110" y="940" width="111.24" height="60" as="geometry" />
        </mxCell>
        <mxCell id="y1aobud8_qHiIOchyNXg-16" value="&lt;font style=&quot;font-size: 14px;&quot;&gt;修改客户业务流程&lt;/font&gt;" style="text;html=1;align=center;verticalAlign=middle;resizable=0;points=[];autosize=1;fontSize=14;labelBackgroundColor=none;fontColor=#143642;" vertex="1" parent="1">
          <mxGeometry x="440" y="30" width="140" height="30" as="geometry" />
        </mxCell>
        <mxCell id="y1aobud8_qHiIOchyNXg-17" value="" style="edgeStyle=orthogonalEdgeStyle;rounded=0;orthogonalLoop=1;jettySize=auto;html=1;fontSize=14;labelBackgroundColor=none;strokeColor=#A8201A;fontColor=default;" edge="1" parent="1" source="y1aobud8_qHiIOchyNXg-18" target="y1aobud8_qHiIOchyNXg-20">
          <mxGeometry relative="1" as="geometry" />
        </mxCell>
        <mxCell id="y1aobud8_qHiIOchyNXg-18" value="&lt;font style=&quot;font-size: 14px;&quot;&gt;开始&lt;/font&gt;" style="rounded=1;whiteSpace=wrap;html=1;fontSize=14;labelBackgroundColor=none;fillColor=#FAE5C7;strokeColor=#0F8B8D;fontColor=#143642;" vertex="1" parent="1">
          <mxGeometry x="515" y="90" width="110" height="60" as="geometry" />
        </mxCell>
        <mxCell id="y1aobud8_qHiIOchyNXg-19" value="" style="edgeStyle=orthogonalEdgeStyle;rounded=0;orthogonalLoop=1;jettySize=auto;html=1;fontSize=14;labelBackgroundColor=none;strokeColor=#A8201A;fontColor=default;" edge="1" parent="1" source="y1aobud8_qHiIOchyNXg-20" target="y1aobud8_qHiIOchyNXg-22">
          <mxGeometry relative="1" as="geometry" />
        </mxCell>
        <mxCell id="y1aobud8_qHiIOchyNXg-20" value="前端发送携带参数信息的HTTP请求" style="rounded=0;whiteSpace=wrap;html=1;fontSize=14;labelBackgroundColor=none;fillColor=#FAE5C7;strokeColor=#0F8B8D;fontColor=#143642;" vertex="1" parent="1">
          <mxGeometry x="510" y="190" width="120" height="60" as="geometry" />
        </mxCell>
        <mxCell id="y1aobud8_qHiIOchyNXg-21" value="" style="edgeStyle=orthogonalEdgeStyle;rounded=0;orthogonalLoop=1;jettySize=auto;html=1;fontSize=14;labelBackgroundColor=none;strokeColor=#A8201A;fontColor=default;" edge="1" parent="1" source="y1aobud8_qHiIOchyNXg-22" target="y1aobud8_qHiIOchyNXg-25">
          <mxGeometry relative="1" as="geometry" />
        </mxCell>
        <mxCell id="y1aobud8_qHiIOchyNXg-22" value="Controller层接收请求" style="rounded=0;whiteSpace=wrap;html=1;fontSize=14;labelBackgroundColor=none;fillColor=#FAE5C7;strokeColor=#0F8B8D;fontColor=#143642;" vertex="1" parent="1">
          <mxGeometry x="510" y="290" width="120" height="60" as="geometry" />
        </mxCell>
        <mxCell id="y1aobud8_qHiIOchyNXg-23" value="" style="edgeStyle=orthogonalEdgeStyle;rounded=0;orthogonalLoop=1;jettySize=auto;html=1;fontSize=14;entryX=1;entryY=0.5;entryDx=0;entryDy=0;labelBackgroundColor=none;strokeColor=#A8201A;fontColor=default;" edge="1" parent="1" target="y1aobud8_qHiIOchyNXg-33">
          <mxGeometry relative="1" as="geometry">
            <mxPoint x="638.1300000000001" y="448" as="sourcePoint" />
            <mxPoint x="765.13" y="860" as="targetPoint" />
            <Array as="points">
              <mxPoint x="638" y="449" />
              <mxPoint x="765" y="449" />
              <mxPoint x="765" y="855" />
            </Array>
          </mxGeometry>
        </mxCell>
        <mxCell id="y1aobud8_qHiIOchyNXg-24" value="" style="edgeStyle=orthogonalEdgeStyle;rounded=0;orthogonalLoop=1;jettySize=auto;html=1;fontSize=14;labelBackgroundColor=none;strokeColor=#A8201A;fontColor=default;" edge="1" parent="1" source="y1aobud8_qHiIOchyNXg-25" target="y1aobud8_qHiIOchyNXg-28">
          <mxGeometry relative="1" as="geometry" />
        </mxCell>
        <mxCell id="y1aobud8_qHiIOchyNXg-25" value="参数验证，客户编码或名称是否为空" style="rhombus;whiteSpace=wrap;html=1;fontSize=14;labelBackgroundColor=none;fillColor=#FAE5C7;strokeColor=#0F8B8D;fontColor=#143642;" vertex="1" parent="1">
          <mxGeometry x="501.88" y="410" width="136.25" height="70" as="geometry" />
        </mxCell>
        <mxCell id="y1aobud8_qHiIOchyNXg-26" value="是" style="text;html=1;align=center;verticalAlign=middle;resizable=0;points=[];autosize=1;fontSize=14;labelBackgroundColor=none;fontColor=#143642;" vertex="1" parent="1">
          <mxGeometry x="675" y="410" width="40" height="30" as="geometry" />
        </mxCell>
        <mxCell id="y1aobud8_qHiIOchyNXg-27" value="" style="edgeStyle=orthogonalEdgeStyle;rounded=0;orthogonalLoop=1;jettySize=auto;html=1;fontSize=14;labelBackgroundColor=none;strokeColor=#A8201A;fontColor=default;" edge="1" parent="1" source="y1aobud8_qHiIOchyNXg-28" target="y1aobud8_qHiIOchyNXg-31">
          <mxGeometry relative="1" as="geometry" />
        </mxCell>
        <mxCell id="y1aobud8_qHiIOchyNXg-28" value="调用service层修改客户方法，传递客户信息" style="whiteSpace=wrap;html=1;fontSize=14;labelBackgroundColor=none;fillColor=#FAE5C7;strokeColor=#0F8B8D;fontColor=#143642;" vertex="1" parent="1">
          <mxGeometry x="498.12" y="560" width="145" height="75" as="geometry" />
        </mxCell>
        <mxCell id="y1aobud8_qHiIOchyNXg-29" value="否" style="text;html=1;align=center;verticalAlign=middle;resizable=0;points=[];autosize=1;fontSize=14;labelBackgroundColor=none;fontColor=#143642;" vertex="1" parent="1">
          <mxGeometry x="565" y="500" width="40" height="30" as="geometry" />
        </mxCell>
        <mxCell id="y1aobud8_qHiIOchyNXg-30" value="" style="edgeStyle=orthogonalEdgeStyle;rounded=0;orthogonalLoop=1;jettySize=auto;html=1;fontSize=14;labelBackgroundColor=none;strokeColor=#A8201A;fontColor=default;" edge="1" parent="1" source="y1aobud8_qHiIOchyNXg-31" target="y1aobud8_qHiIOchyNXg-33">
          <mxGeometry relative="1" as="geometry" />
        </mxCell>
        <mxCell id="y1aobud8_qHiIOchyNXg-31" value="处理修改客户业务逻辑，调用Dao层持久化客户信息到数据库" style="whiteSpace=wrap;html=1;fontSize=14;labelBackgroundColor=none;fillColor=#FAE5C7;strokeColor=#0F8B8D;fontColor=#143642;" vertex="1" parent="1">
          <mxGeometry x="492.5" y="700" width="155" height="75" as="geometry" />
        </mxCell>
        <mxCell id="y1aobud8_qHiIOchyNXg-32" value="" style="edgeStyle=orthogonalEdgeStyle;rounded=0;orthogonalLoop=1;jettySize=auto;html=1;fontSize=14;labelBackgroundColor=none;strokeColor=#A8201A;fontColor=default;" edge="1" parent="1" source="y1aobud8_qHiIOchyNXg-33" target="y1aobud8_qHiIOchyNXg-34">
          <mxGeometry relative="1" as="geometry" />
        </mxCell>
        <mxCell id="y1aobud8_qHiIOchyNXg-33" value="返回响应" style="whiteSpace=wrap;html=1;fontSize=14;labelBackgroundColor=none;fillColor=#FAE5C7;strokeColor=#0F8B8D;fontColor=#143642;" vertex="1" parent="1">
          <mxGeometry x="517.51" y="840" width="105" height="30" as="geometry" />
        </mxCell>
        <mxCell id="y1aobud8_qHiIOchyNXg-34" value="结束" style="rounded=1;whiteSpace=wrap;html=1;fontSize=14;labelBackgroundColor=none;fillColor=#FAE5C7;strokeColor=#0F8B8D;fontColor=#143642;" vertex="1" parent="1">
          <mxGeometry x="515" y="940" width="111.24" height="60" as="geometry" />
        </mxCell>
        <mxCell id="y1aobud8_qHiIOchyNXg-35" value="添加失败" style="text;html=1;align=center;verticalAlign=middle;resizable=0;points=[];autosize=1;fontSize=14;labelBackgroundColor=none;fontColor=#143642;" vertex="1" parent="1">
          <mxGeometry x="285" y="620" width="80" height="30" as="geometry" />
        </mxCell>
        <mxCell id="y1aobud8_qHiIOchyNXg-37" value="&lt;font style=&quot;font-size: 14px;&quot;&gt;修改失败&lt;/font&gt;" style="text;html=1;align=center;verticalAlign=middle;resizable=0;points=[];autosize=1;labelBackgroundColor=none;fontColor=#143642;" vertex="1" parent="1">
          <mxGeometry x="690" y="605" width="80" height="30" as="geometry" />
        </mxCell>
        <mxCell id="y1aobud8_qHiIOchyNXg-38" value="&lt;font style=&quot;font-size: 14px;&quot;&gt;删除客户业务流程&lt;/font&gt;" style="text;html=1;align=center;verticalAlign=middle;resizable=0;points=[];autosize=1;fontSize=14;labelBackgroundColor=none;fontColor=#143642;" vertex="1" parent="1">
          <mxGeometry x="35" y="1070" width="140" height="30" as="geometry" />
        </mxCell>
        <mxCell id="y1aobud8_qHiIOchyNXg-39" value="" style="edgeStyle=orthogonalEdgeStyle;rounded=0;orthogonalLoop=1;jettySize=auto;html=1;fontSize=14;labelBackgroundColor=none;strokeColor=#A8201A;fontColor=default;" edge="1" parent="1" source="y1aobud8_qHiIOchyNXg-40" target="y1aobud8_qHiIOchyNXg-42">
          <mxGeometry relative="1" as="geometry" />
        </mxCell>
        <mxCell id="y1aobud8_qHiIOchyNXg-40" value="&lt;font style=&quot;font-size: 14px;&quot;&gt;开始&lt;/font&gt;" style="rounded=1;whiteSpace=wrap;html=1;fontSize=14;labelBackgroundColor=none;fillColor=#FAE5C7;strokeColor=#0F8B8D;fontColor=#143642;" vertex="1" parent="1">
          <mxGeometry x="110" y="1130" width="110" height="60" as="geometry" />
        </mxCell>
        <mxCell id="y1aobud8_qHiIOchyNXg-41" value="" style="edgeStyle=orthogonalEdgeStyle;rounded=0;orthogonalLoop=1;jettySize=auto;html=1;fontSize=14;labelBackgroundColor=none;strokeColor=#A8201A;fontColor=default;" edge="1" parent="1" source="y1aobud8_qHiIOchyNXg-42" target="y1aobud8_qHiIOchyNXg-44">
          <mxGeometry relative="1" as="geometry" />
        </mxCell>
        <mxCell id="y1aobud8_qHiIOchyNXg-42" value="前端发送携带参数信息的HTTP请求" style="rounded=0;whiteSpace=wrap;html=1;fontSize=14;labelBackgroundColor=none;fillColor=#FAE5C7;strokeColor=#0F8B8D;fontColor=#143642;" vertex="1" parent="1">
          <mxGeometry x="105" y="1230" width="120" height="60" as="geometry" />
        </mxCell>
        <mxCell id="y1aobud8_qHiIOchyNXg-69" value="" style="edgeStyle=orthogonalEdgeStyle;rounded=0;orthogonalLoop=1;jettySize=auto;html=1;fontSize=14;labelBackgroundColor=none;strokeColor=#A8201A;fontColor=default;" edge="1" parent="1" source="y1aobud8_qHiIOchyNXg-44" target="y1aobud8_qHiIOchyNXg-68">
          <mxGeometry relative="1" as="geometry" />
        </mxCell>
        <mxCell id="y1aobud8_qHiIOchyNXg-44" value="Controller层接收删除客户请求" style="rounded=0;whiteSpace=wrap;html=1;fontSize=14;labelBackgroundColor=none;fillColor=#FAE5C7;strokeColor=#0F8B8D;fontColor=#143642;" vertex="1" parent="1">
          <mxGeometry x="105" y="1330" width="120" height="60" as="geometry" />
        </mxCell>
        <mxCell id="y1aobud8_qHiIOchyNXg-61" value="" style="edgeStyle=orthogonalEdgeStyle;rounded=0;orthogonalLoop=1;jettySize=auto;html=1;fontSize=14;labelBackgroundColor=none;strokeColor=#A8201A;fontColor=default;" edge="1" parent="1" source="y1aobud8_qHiIOchyNXg-58" target="y1aobud8_qHiIOchyNXg-60">
          <mxGeometry relative="1" as="geometry" />
        </mxCell>
        <mxCell id="y1aobud8_qHiIOchyNXg-58" value="调用service层删除客户方法，传递客户编码或id" style="whiteSpace=wrap;html=1;fontSize=14;rounded=0;labelBackgroundColor=none;fillColor=#FAE5C7;strokeColor=#0F8B8D;fontColor=#143642;" vertex="1" parent="1">
          <mxGeometry x="104.69" y="1570" width="120" height="60" as="geometry" />
        </mxCell>
        <mxCell id="y1aobud8_qHiIOchyNXg-63" value="" style="edgeStyle=orthogonalEdgeStyle;rounded=0;orthogonalLoop=1;jettySize=auto;html=1;fontSize=14;labelBackgroundColor=none;strokeColor=#A8201A;fontColor=default;" edge="1" parent="1" source="y1aobud8_qHiIOchyNXg-60" target="y1aobud8_qHiIOchyNXg-62">
          <mxGeometry relative="1" as="geometry" />
        </mxCell>
        <mxCell id="y1aobud8_qHiIOchyNXg-60" value="处理删除客户业务逻辑，调用Dao层删除数据库客户信息" style="whiteSpace=wrap;html=1;fontSize=14;rounded=0;labelBackgroundColor=none;fillColor=#FAE5C7;strokeColor=#0F8B8D;fontColor=#143642;" vertex="1" parent="1">
          <mxGeometry x="96.88" y="1710" width="134.38" height="70" as="geometry" />
        </mxCell>
        <mxCell id="y1aobud8_qHiIOchyNXg-65" value="" style="edgeStyle=orthogonalEdgeStyle;rounded=0;orthogonalLoop=1;jettySize=auto;html=1;fontSize=14;labelBackgroundColor=none;strokeColor=#A8201A;fontColor=default;" edge="1" parent="1" source="y1aobud8_qHiIOchyNXg-62" target="y1aobud8_qHiIOchyNXg-64">
          <mxGeometry relative="1" as="geometry" />
        </mxCell>
        <mxCell id="y1aobud8_qHiIOchyNXg-62" value="返回响应" style="rounded=0;whiteSpace=wrap;html=1;fontSize=14;labelBackgroundColor=none;fillColor=#FAE5C7;strokeColor=#0F8B8D;fontColor=#143642;" vertex="1" parent="1">
          <mxGeometry x="104.07" y="1865" width="120" height="60" as="geometry" />
        </mxCell>
        <mxCell id="y1aobud8_qHiIOchyNXg-64" value="结束" style="rounded=1;whiteSpace=wrap;html=1;fontSize=14;labelBackgroundColor=none;fillColor=#FAE5C7;strokeColor=#0F8B8D;fontColor=#143642;" vertex="1" parent="1">
          <mxGeometry x="104.69" y="1980" width="120" height="60" as="geometry" />
        </mxCell>
        <mxCell id="y1aobud8_qHiIOchyNXg-70" value="" style="edgeStyle=orthogonalEdgeStyle;rounded=0;orthogonalLoop=1;jettySize=auto;html=1;fontSize=14;labelBackgroundColor=none;strokeColor=#A8201A;fontColor=default;" edge="1" parent="1" source="y1aobud8_qHiIOchyNXg-68" target="y1aobud8_qHiIOchyNXg-58">
          <mxGeometry relative="1" as="geometry" />
        </mxCell>
        <mxCell id="y1aobud8_qHiIOchyNXg-68" value="发送系统提醒" style="rhombus;whiteSpace=wrap;html=1;fontSize=14;rounded=0;labelBackgroundColor=none;fillColor=#FAE5C7;strokeColor=#0F8B8D;fontColor=#143642;" vertex="1" parent="1">
          <mxGeometry x="107.19" y="1430" width="115" height="80" as="geometry" />
        </mxCell>
        <mxCell id="y1aobud8_qHiIOchyNXg-71" value="是" style="text;html=1;align=center;verticalAlign=middle;resizable=0;points=[];autosize=1;fontSize=14;labelBackgroundColor=none;fontColor=#143642;" vertex="1" parent="1">
          <mxGeometry x="160" y="1518" width="40" height="30" as="geometry" />
        </mxCell>
        <mxCell id="y1aobud8_qHiIOchyNXg-73" style="edgeStyle=orthogonalEdgeStyle;rounded=0;orthogonalLoop=1;jettySize=auto;html=1;entryX=1;entryY=0.5;entryDx=0;entryDy=0;fontSize=14;labelBackgroundColor=none;strokeColor=#A8201A;fontColor=default;" edge="1" parent="1" target="y1aobud8_qHiIOchyNXg-62">
          <mxGeometry relative="1" as="geometry">
            <mxPoint x="302.81" y="1900" as="targetPoint" />
            <mxPoint x="225.00000000000006" y="1470" as="sourcePoint" />
            <Array as="points">
              <mxPoint x="225" y="1471" />
              <mxPoint x="300" y="1471" />
              <mxPoint x="300" y="1895" />
            </Array>
          </mxGeometry>
        </mxCell>
        <mxCell id="y1aobud8_qHiIOchyNXg-74" value="否" style="text;html=1;align=center;verticalAlign=middle;resizable=0;points=[];autosize=1;fontSize=14;labelBackgroundColor=none;fontColor=#143642;" vertex="1" parent="1">
          <mxGeometry x="300" y="1668" width="40" height="30" as="geometry" />
        </mxCell>
      </root>
    </mxGraphModel>
  </diagram>
</mxfile>
